<?xml version="1.0" encoding="UTF-8"?>
<svg id="Layer_1" data-name="Layer 1" xmlns="http://www.w3.org/2000/svg" viewBox="0 0 311.81 325.98" fill="yellow" fill-opacity="0.85">
  <g>
    <path d="M78.68,261.97h2.83l8.09,17.8h-2.59l-1.73-3.95h-10.36l-1.73,3.95h-2.59l8.09-17.8ZM84.37,273.76l-4.27-9.71-4.27,9.71h8.54Z"/>
    <path d="M95.34,270.88c0-5.5,4.27-9.21,10.12-9.21,3.74,0,6.35,1.49,8.01,3.74l-1.89,1.2c-1.31-1.79-3.44-2.86-6.11-2.86-4.51,0-7.71,2.88-7.71,7.13s3.2,7.12,7.71,7.12c2.64,0,4.8-1.07,6.03-2.78l1.97,1.17c-1.71,2.19-4.3,3.68-8.01,3.68-5.84,0-10.12-3.74-10.12-9.21Z"/>
    <path d="M127.8,261.97h2.83l8.09,17.8h-2.59l-1.73-3.95h-10.36l-1.73,3.95h-2.59l8.09-17.8ZM133.48,273.76l-4.27-9.71-4.27,9.71h8.54Z"/>
    <path d="M146.54,261.97h7.18c6.06,0,10.12,3.31,10.12,8.91s-4.08,8.89-10.12,8.89h-7.18v-17.8ZM153.72,277.68c4.91,0,7.71-2.62,7.71-6.8s-2.78-6.86-7.71-6.86h-4.86v13.66h4.86Z"/>
    <path d="M172.86,261.97h13.88v2.05h-11.56v5.6h11.24v2.08h-11.24v6h11.56v2.05h-13.88v-17.8Z"/>
    <path d="M195.89,261.97h3.31l6.38,13.82,6.38-13.82h3.34v17.8h-2.32v-14.92l-6.89,14.92h-1.01l-6.86-14.92v14.92h-2.32v-17.8Z"/>
    <path d="M231.13,272.29l-7.9-10.33h2.88l6.19,8.22,6.11-8.22h2.91l-7.87,10.33v7.47h-2.32v-7.47Z"/>
  </g>
  <g>
    <path d="M6.18,246.68v-.58c1.38-.46,1.67-1.71,1.67-4.72v-18.63c0-3.01-.29-4.26-1.67-4.72v-.58h10.32c6.85,0,9.36,2.13,9.36,5.51,0,2.84-1.8,5.43-7.06,6.35,6.89.21,10.4,3.38,10.44,7.56.08,4.89-3.72,9.81-13.99,9.81H6.18ZM20.88,223.92c0-3.67-2.63-5.8-6.89-5.8h-1.71v11.07h3.72c3.05,0,4.89-2.34,4.89-5.26ZM24.27,238.41c0-5.01-2.8-8.56-9.02-8.56h-2.96v12.53c0,3.01.38,3.63,2.17,3.63h1.17c6.01,0,8.65-3.17,8.65-7.6Z"/>
    <path d="M48.57,239.83c-2.51-6.1-2.71-8.14-6.39-8.14h-2.46v9.69c0,3.01.29,4.26,1.67,4.72v.58h-7.77v-.58c1.38-.46,1.67-1.71,1.67-4.72v-18.63c0-3.01-.29-4.26-1.67-4.72v-.58h8.77c9.1,0,10.98,3.3,10.98,6.68,0,3.84-2.63,6.72-8.19,7.39,4.72.54,5.64,2.51,7.85,8.06s2.67,6.56,4.22,6.56c.21,0,.42,0,.63-.04v.58c-.96.25-2.3.29-3.01.29-3.47,0-4.3-2.25-6.31-7.14ZM48.95,225.13c0-3.38-2.17-7.02-7.39-7.02-.58,0-1.21.04-1.84.12v12.78h2.67c4.76,0,6.56-2.67,6.56-5.89Z"/>
    <path d="M60.47,246.1c1.38-.46,1.67-1.71,1.67-4.72v-18.63c0-3.01-.29-4.26-1.67-4.72v-.58h7.77v.58c-1.38.46-1.67,1.71-1.67,4.72v18.63c0,3.01.29,4.26,1.67,4.72v.58h-7.77v-.58Z"/>
    <path d="M70.36,246.1c1.25-.46,2.38-1.54,3.51-4.34l7.81-19.38c.33-.83.29-1.5-.08-2.25l-.54-1.17,4.09-1.84,10.36,24.68c1.17,2.76,2.25,3.84,3.22,4.3v.58h-7.6v-.58c1.38-.46.79-1.54-.38-4.3l-2.51-6.01h-11.15l-2.42,5.97c-1.13,2.8-.88,4.01.54,4.34v.58h-4.84v-.58ZM87.95,235.11l-5.39-12.91-5.22,12.91h10.61Z"/>
    <path d="M103.52,222.29v16.58c0,5.09,1,6.56,3.17,7.22v.58h-5.6v-.58c1.38-.46,1.67-1.71,1.67-4.72v-18.63c0-3.01-.38-4.26-2.17-4.72v-.58h4.72l17.54,21.97v-14.16c0-5.09-1-6.56-3.17-7.22v-.58h5.64v.58c-1.38.46-1.67,1.71-1.67,4.72v24.26h-.54l-19.59-24.72Z"/>
    <path d="M139.18,246.68v-.58c1.38-.46,1.67-1.71,1.67-4.72v-18.63c0-3.01-.29-4.26-1.67-4.72v-.58h20.05l.46,5.89-.54.12c-1.67-4.09-4.3-5.34-8.98-5.34h-4.89v12.53h4.01c5.1,0,6.56-1,7.23-3.17h.58v7.02h-.58c-.67-2.17-2.13-3.17-7.23-3.17h-4.01v12.61c0,1.34.75,2.09,2.09,2.09h4.01c4.22,0,7.1-1.25,8.69-5.51l.54.08-.29,6.1h-21.13Z"/>
    <path d="M170.96,246.1c1.38-.46,1.67-1.71,1.67-4.72v-23.18h-1.29c-3.72,0-5.6,1.04-7.14,4.38l-.5-.08.25-5.05h21.76l.25,5.05-.5.08c-1.55-3.34-3.42-4.38-7.14-4.38h-1.21v23.18c0,3.01.29,4.26,1.67,4.72v.58h-7.81v-.58Z"/>
    <path d="M189.5,246.68v-.58c1.38-.46,1.67-1.71,1.67-4.72v-18.63c0-3.01-.29-4.26-1.67-4.72v-.58h20.05l.46,5.89-.54.12c-1.67-4.09-4.3-5.34-8.98-5.34h-4.89v12.53h4.01c5.1,0,6.56-1,7.23-3.17h.58v7.02h-.58c-.67-2.17-2.13-3.17-7.23-3.17h-4.01v12.61c0,1.34.75,2.09,2.09,2.09h4.01c4.22,0,7.1-1.25,8.69-5.51l.54.08-.29,6.1h-21.13Z"/>
    <path d="M215.18,246.1c1.38-.46,1.67-1.71,1.67-4.72v-16.12c0-5.09-.92-6.56-2.84-7.22v-.58h6.26l10.32,17.12,9.81-17.12h5.93v.58c-1.92.67-2.84,2.13-2.84,7.22v16.12c0,3.01.29,4.26,1.67,4.72v.58h-7.77v-.58c1.38-.46,1.67-1.71,1.67-4.72v-20.21l-10.02,17.58h-.96l-10.48-17.21v17.33c0,5.09,1,6.56,3.17,7.22v.58h-5.6v-.58Z"/>
    <path d="M248.46,246.1c1.25-.46,2.38-1.54,3.51-4.34l7.81-19.38c.33-.83.29-1.5-.08-2.25l-.54-1.17,4.09-1.84,10.36,24.68c1.17,2.76,2.25,3.84,3.22,4.3v.58h-7.6v-.58c1.38-.46.79-1.54-.38-4.3l-2.51-6.01h-11.15l-2.42,5.97c-1.13,2.8-.88,4.01.54,4.34v.58h-4.84v-.58ZM266.04,235.11l-5.39-12.91-5.22,12.91h10.61Z"/>
    <path d="M279.19,246.68v-.58c1.38-.46,1.67-1.71,1.67-4.72v-18.63c0-3.01-.29-4.26-1.67-4.72v-.58h10.44c12.03,0,15.95,7.89,16,14.03.04,9.06-5.89,15.2-15.08,15.2h-11.36ZM300.7,233.53c0-8.56-4.43-15.41-13.74-15.41h-1.67v24.85c0,1.96.42,3.05,2.71,3.05h2.25c6.72,0,10.44-3.55,10.44-12.49Z"/>
  </g>
  <g>
    <path d="M212.74,46.31c-.12.03-.29.03-.35.1-.26.33-.48.68-.71,1.03-3.88,5.79-8.02,11.39-12.66,16.61-2.38,2.68-4.85,5.26-7.65,7.51-1.37,1.1-2.82,2.13-4.3,3.07-2.44,1.54-5.16,2.25-8.01,2.58-4.26.49-8.43-.1-12.57-1.03-4.35-.97-8.57-2.42-12.78-3.85-3.82-1.3-7.62-2.66-11.54-3.64-2.25-.57-4.53-.99-6.86-1.08-2.7-.11-5.24.38-7.68,1.59-6.76,3.37-12.77,7.74-17.97,13.23-.22.24-.45.47-.68.69-.03.03-.08.04-.21.09.01-.19-.02-.37.04-.5,3.69-7.95,9.12-14.28,17.1-18.2,2.59-1.27,5.36-2.08,8.11-2.91,3.91-1.19,7.89-2.12,11.93-2.72,4.42-.66,8.86-.94,13.33-.74,4.37.19,8.68.86,12.98,1.63,2.51.45,5.02.95,7.58,1.05,1.87.07,3.7-.08,5.51-.58,2.33-.64,4.63-1.35,6.84-2.34,1.36-.61,2.67-1.31,3.83-2.25.35-.28.75-.54.94-1.05-.96-.99-2.16-1.42-3.45-1.65-1.93-.34-3.79,0-5.6.67-2,.75-3.98,1.54-5.97,2.3-.37.14-.76.24-1.24.38.08-.26.1-.39.16-.5,1.26-2.28,2.72-4.43,4.51-6.34.99-1.06,2.12-1.93,3.4-2.63,1.18-.65,2.32-1.36,3.45-2.09,1.48-.96,2.92-1.97,4.38-2.95-.08-.33-.35-.26-.56-.28-4.92-.45-9.61.5-14.13,2.38-2.32.96-4.55,2.1-6.72,3.35-.4.23-.8.46-1.3.74,0-.22-.04-.35,0-.44,1.4-2.4,2.73-4.86,4.25-7.19,4.46-6.88,10.74-11.45,18.44-14.13,2.94-1.02,5.96-1.77,9.03-2.27.41-.07.84-.06,1.22-.43-2.67-.81-5.32-1.4-8.07-1.51-2.77-.11-5.41.57-8.16,1.36.15-.23.19-.37.28-.44,4.22-3.43,8.6-6.63,13.49-9.09,4.43-2.23,9.06-3.83,13.97-4.55,3.81-.57,7.63-1.06,11.49-1.25,1.21-.06,2.41-.16,3.62-.23,1.09-.06,2.08-.45,3.06-.86,2.36-.98,4.7-2,7.08-2.9,1.47-.56,3-.96,4.52-1.38.57-.16,1.18-.15,1.93-.23-.13.35-.16.56-.28.73-.94,1.34-2.09,2.48-3.33,3.55-.63.55-1.29,1.07-1.9,1.63-.38.34-.73.72-1.04,1.12-.39.49-.57,1.06-.35,1.79.38.21.82.47,1.27.69,1.37.68,2.75,1.36,4.12,2.03,2.22,1.08,4.08,2.58,5.45,4.65,2.56,3.86,3.22,4.01,5.7,6.24,5.85,5.23,11.65,10.52,17.46,15.8.58.53,1.13,1.09,1.67,1.62-.03.27-.02.46-.07.63-.95,3.1-2.35,5.95-4.44,8.45-.73.87-1.25,1.01-2.32.65-.85-.29-1.58-.79-2.21-1.42-3.01-2.98-6.62-5.08-10.36-6.96-.91-.46-1.88-.79-2.85-1.12-1.04-.35-2.06-.29-3.11.17-3.28,1.45-6.67,2.56-10.21,3.14-1.75.29-3.5.42-5.27.2-1.62-.2-3.04-.78-4.3-1.8-1.46-1.2-2.57-2.68-3.39-4.37-.86-1.77-1.41-3.63-1.7-5.57-.05-.35-.15-.69-.25-1.14-.51.43-.65.93-.86,1.38-1.51,3.26-2.58,6.66-3.27,10.18-.78,3.99-1,8.02-.57,12.06.51,4.67,1.36,9.27,2.6,13.81,1.17,4.26,2.64,8.41,4.45,12.44.15.34.29.68.43,1.03.02.04,0,.09,0,.17-.17.36-.55.41-.89.54-2.39.89-4.86,1.54-7.34,2.15-3.83.94-7.7,1.71-11.62,2.19-1.15.14-2.31.17-3.47.26-.23.02-.45.04-.91.07.3.21.4.33.53.37,3.75,1.24,7.56,2.31,11.5,2.66,4.21.37,8.34-.02,12.3-1.67,3.56-1.48,7.05-3.1,10.49-4.82,3.11-1.56,6.21-3.14,9.32-4.71.62-.31,1.25-.6,1.89-.91.18.12.34.21.47.34,3.25,3.14,6.17,6.57,8.62,10.37,2.28,3.53,4.06,7.29,5.18,11.36.74,2.68,1.48,5.37,1.96,8.12.12.7.11,1.36-.07,2.06-.64,2.47-1.33,4.93-2.32,7.29-.39.94-.9,1.83-1.39,2.72-.37.67-.95,1.13-1.68,1.4-.65.25-1.29.53-1.94.76-.93.32-1.74.11-2.35-.69-.28-.37-.57-.74-.82-1.12-2.06-3.15-4.11-6.3-6.16-9.45-.12-.19-.22-.4-.36-.65,1.33-.93,2.79-1.34,4.3-1.57,1.54-.23,3.05,0,4.54.8,0-.36.04-.59,0-.8-.69-2.79-1.41-5.58-2.48-8.26-1.31-3.27-3.28-6.13-5.52-8.82-.41-.49-.94-.9-1.46-1.28-.43-.31-.95-.36-1.45-.1-.5.25-1,.5-1.49.76-5.08,2.7-10.16,5.41-15.25,8.09-3.9,2.05-7.83,4.06-11.9,5.77-4.89,2.06-9.92,3.65-15.17,4.5-4.09.66-8.21.87-12.35.48-5.38-.51-10.45-2.01-15.26-4.48-5-2.56-10.07-4.97-15.34-6.92-3.62-1.34-7.31-2.41-11.13-3.02-6.17-.97-12.12-.33-17.84,2.2-5.35,2.36-10.17,5.56-14.67,9.27-2.58,2.13-5.04,4.4-7.26,6.91-.62.69-1.19,1.43-1.79,2.14-.16.19-.34.38-.66.48.06-.21.12-.43.19-.63,1.86-5.52,4.27-10.79,7.38-15.72,1.67-2.64,3.54-5.11,5.73-7.35,2.29-2.35,4.88-4.28,7.83-5.72,5.05-2.48,10.22-4.63,15.68-6.06,4.74-1.24,9.56-1.89,14.46-1.76,3.02.08,6.02.45,9,.88,2.34.34,4.69.68,7.04.89,4.18.36,8.12-.49,11.75-2.65,2.94-1.75,5.51-3.94,7.85-6.41,3.57-3.76,6.49-8,9.04-12.5,2.59-4.58,4.75-9.35,6.54-14.29.16-.43.25-.89.37-1.34,0-.07.27-.13.01-.21,0,.08.02.16.03.24ZM253.3,26.71c-.07-.67-.49-1-.88-1.31-.77-.6-1.57-1.16-2.36-1.73-1.82-1.3-3.87-1.73-6.06-1.64-.21,0-.41.11-.63.17.04.23.03.37.09.49.66,1.36,1.63,2.47,2.74,3.48.48.44,1,.44,1.52.08.63-.43,1.31-.43,2.01-.28.54.11,1.08.26,1.63.37.63.13,1.26.23,1.94.36Z"/>
    <path d="M78.1,118.38c.2-.37.55-.4.83-.51,3.84-1.53,7.6-3.22,11.2-5.25,1.78-1,3.51-2.09,5.13-3.34,1.4-1.09,2.67-2.31,3.68-3.78,1.85-2.67,3.7-5.34,5.54-8.02,2.81-4.1,5.63-8.19,8.81-12.01,1.13-1.36,2.32-2.66,3.51-3.96,3.5-3.82,7.88-6.12,12.85-7.38,3.81-.96,7.67-1.24,11.6-.93,4.43.36,8.7,1.34,12.85,2.88.43.16.84.36,1.37.59-.34.27-.6.16-.83.14-8.49-.4-16.38,1.59-23.7,5.88-2.37,1.39-4.45,3.18-6.44,5.08-2.89,2.77-5.45,5.83-8.01,8.9-1.96,2.35-3.92,4.71-5.92,7.03-1.64,1.9-3.4,3.69-5.35,5.28-1.37,1.12-2.85,2.06-4.46,2.82-5.55,2.64-11.31,4.68-17.34,5.89-1.32.26-2.65.47-3.98.67-.43.06-.89.01-1.37.01Z"/>
    <path d="M33.31,122.82c-.21-.31-.04-.5.07-.69,2.51-4.48,5.77-8.3,10.04-11.2,3.09-2.1,6.52-3.3,10.18-3.91,3.21-.54,6.45-.79,9.7-.86,3.76-.08,7.52-.15,11.28-.28,1.3-.04,2.59-.18,3.88-.34,1.43-.19,2.8-.65,4.14-1.17,3.98-1.55,7.82-3.41,11.62-5.34,1.45-.73,2.88-1.5,4.32-2.25.32-.17.66-.32,1.11-.53-.04.22-.02.35-.08.43-3.83,4.81-8.01,9.27-12.95,12.97-.63.47-1.3.9-1.95,1.34-3.4,2.31-7.18,3.38-11.27,3.51-2.79.09-5.57-.12-8.34-.36-3.47-.3-6.92-.73-10.41-.83-1.91-.06-3.8,0-5.69.31-1.2.2-2.33.58-3.44,1.08-4.08,1.86-7.79,4.31-11.17,7.25-.34.29-.69.58-1.04.87Z"/>
  </g>
  <g>
    <path d="M131.66,312.76c0-5.68-3.33-9.01-9.01-9.01,5.68,0,9.01-3.33,9.01-9.01,0,5.68,3.33,9.01,9.01,9.01-5.68,0-9.01,3.33-9.01,9.01Z"/>
    <path d="M180.31,312.76c0-5.68-3.33-9.01-9.01-9.01,5.68,0,9.01-3.33,9.01-9.01,0,5.68,3.33,9.01,9.01,9.01-5.68,0-9.01,3.33-9.01,9.01Z"/>
  </g>
  <path d="M260.17,169.11c-.67,1.37-1.34,2.73-2.01,4.1-36.02-1.25-68.57,6.88-95.03,20.6-2.42,1.05-4.8,2.15-7.14,3.3-2.34-1.14-4.72-2.23-7.14-3.28,0,0,.02,0,0-.02-26.46-13.72-59.02-21.84-95.04-20.59-.67-1.37-1.34-2.73-2.01-4.1,37.25-1.6,70.96,6.65,98.34,20.76,1.98.86,3.93,1.75,5.85,2.67,1.92-.91,3.86-1.79,5.84-2.65,27.37-14.12,61.08-22.37,98.34-20.78Z"/>
  <path d="M271.94,138.22l-.04.09c-.31.65-.62,1.29-.94,1.94-.32.65-.64,1.31-.96,1.96-46.32,4.62-85.22,22.74-112.89,47.08-.22.18-.44.37-.65.57-.16.13-.32.27-.47.41-.15-.14-.31-.28-.47-.41-.22-.2-.44-.4-.66-.58-27.67-24.34-66.56-42.45-112.88-47.07-.32-.65-.64-1.31-.96-1.96-.3-.61-.6-1.21-.89-1.82l.11-.29c1.59.14,3.16.31,4.73.49,44.77,5.09,82.54,22.64,109.89,46.12.38.32.76.64,1.13.97.37-.32.74-.65,1.12-.96,27.34-23.48,65.13-41.04,109.9-46.14,1.57-.17,3.14-.34,4.73-.48l.2.08Z"/>
  <path d="M263.86,158.79c-42.96,1.45-80.12,15.35-107.87,35.53-27.75-20.18-64.91-34.08-107.87-35.53-.67-1.36-1.34-2.73-2-4.09,43.59,1.14,81.44,14.89,109.88,35.07,28.44-20.18,66.29-33.93,109.88-35.07-.67,1.36-1.34,2.73-2,4.09Z"/>
  <path d="M157.11,172.96h-2.25c0-11.03-14.16-22.44-40.94-33-19.07-7.52-38.39-12.12-41.19-12.77l-27.76,11.44-3.95,1.62c-.3-.61-.6-1.21-.89-1.82l-.09-.21.2-.08,32.29-13.31.35.08c.21.04,21.16,4.8,41.84,12.95,28.13,11.08,42.39,22.89,42.39,35.1Z"/>
  <path d="M271.94,138.22l-.04.09c-.31.65-.62,1.29-.94,1.94l-3.95-1.63-27.76-11.43c-5.83,1.35-82.14,19.68-82.14,45.77v16.9h-2.25v-16.9c0-12.21,14.26-24.02,42.39-35.1,20.68-8.15,41.64-12.91,41.85-12.95l.34-.08,32.3,13.31.2.08Z"/>
  <path d="M155.99,323.58c0-6.89-4.04-10.93-10.93-10.93,6.89,0,10.93-4.04,10.93-10.93,0,6.89,4.04,10.93,10.93,10.93-6.89,0-10.93,4.04-10.93,10.93Z"/>
</svg>