<svg width="227" height="36" viewBox="0 0 227 36" fill="none" xmlns="http://www.w3.org/2000/svg">
<path d="M49.7327 12.9H49.6381C49.5434 13 49.5434 13.1 49.4488 13.2C48.4077 14.9 47.2719 16.5 45.9468 18.1C45.2842 18.9 44.6217 19.6 43.8645 20.3C43.4859 20.6 43.1073 20.9 42.6341 21.2C41.9715 21.7 41.2143 21.9 40.4572 22C39.3214 22.1 38.0909 22 36.9551 21.7C35.7247 21.4 34.5889 21 33.4531 20.6C32.412 20.2 31.3709 19.8 30.2351 19.5C29.5725 19.3 29.0046 19.2 28.3421 19.2C27.5849 19.2 26.9224 19.3 26.2598 19.7C24.3668 20.7 22.7578 22 21.2434 23.6C21.1488 23.7 21.1488 23.7 21.0541 23.8C21.0541 23.8 21.0541 23.8 20.9595 23.8C20.9595 23.7 20.9595 23.7 20.9595 23.7C22.0006 21.4 23.515 19.5 25.6919 18.4C26.4491 18 27.2063 17.8 27.9635 17.5C29.0046 17.2 30.1404 16.9 31.2762 16.7C32.5066 16.5 33.7371 16.4 34.9675 16.5C36.198 16.6 37.3337 16.8 38.5642 17C39.2267 17.1 39.9839 17.3 40.6464 17.3C41.1197 17.3 41.6876 17.3 42.1608 17.1C42.8234 16.9 43.4859 16.7 44.0538 16.4C44.4324 16.2 44.811 16 45.0949 15.7C45.1896 15.6 45.2842 15.5 45.3789 15.4C45.0949 15.1 44.811 15 44.4324 14.9C43.8645 14.8 43.3913 14.9 42.918 15.1C42.3501 15.3 41.7822 15.6 41.309 15.8C41.2143 15.8 41.1197 15.9 40.9304 15.9C40.9304 15.8 40.9304 15.8 40.9304 15.8C41.309 15.1 41.6876 14.5 42.1608 13.9C42.4448 13.6 42.7287 13.3 43.1073 13.1C43.3913 12.9 43.7699 12.7 44.0538 12.5C44.4324 12.2 44.9056 11.9 45.2842 11.6C45.2842 11.5 45.1896 11.5 45.0949 11.5C43.7699 11.4 42.4448 11.6 41.2143 12.2C40.5518 12.5 39.9839 12.8 39.3214 13.2C39.2267 13.3 39.1321 13.3 38.9428 13.4C38.9428 13.3 38.9428 13.3 38.9428 13.3C39.3214 12.6 39.7 11.9 40.0786 11.2C41.309 9.2 43.0127 7.8 45.1896 7.1C46.0414 6.8 46.7986 6.6 47.6505 6.4C47.7451 6.4 47.8398 6.4 48.0291 6.3C47.2719 6.1 46.5147 5.9 45.7575 5.9C45.0003 5.9 44.2431 6.1 43.4859 6.3C43.4859 6.2 43.5806 6.2 43.5806 6.2C44.7164 5.2 45.9468 4.3 47.2719 3.5C48.5023 2.8 49.8274 2.4 51.1525 2.2C52.1936 2 53.2348 1.9 54.3705 1.8C54.7491 1.8 55.0331 1.8 55.4117 1.7C55.6956 1.7 55.9796 1.6 56.2635 1.4C56.9261 1.1 57.5886 0.8 58.2511 0.5C58.6297 0.3 59.103 0.2 59.4816 0.1C59.6709 0.1 59.7655 0.1 60.0495 0C60.0495 0.1 60.0495 0.2 59.9548 0.2C59.6709 0.6 59.3869 0.9 59.0083 1.2C58.819 1.4 58.6297 1.5 58.4404 1.7C58.3458 1.8 58.2512 1.9 58.1565 2C58.0619 2.1 57.9672 2.3 58.0618 2.5C58.1565 2.6 58.2511 2.6 58.4404 2.7C58.819 2.9 59.1976 3.1 59.5762 3.3C60.1441 3.6 60.712 4.1 61.0906 4.7C61.7532 5.8 61.9425 5.9 62.6996 6.5C64.3087 8 65.9177 9.6 67.5267 11.1C67.716 11.3 67.8107 11.4 68 11.6C68 11.7 68 11.7 68 11.8C67.716 12.7 67.3374 13.5 66.7696 14.3C66.5803 14.6 66.391 14.6 66.107 14.5C65.9177 14.4 65.6338 14.3 65.5391 14.1C64.6873 13.2 63.7408 12.6 62.6996 12.1C62.4157 12 62.2264 11.9 61.9425 11.8C61.6585 11.7 61.3746 11.7 61.0906 11.9C60.1441 12.3 59.1976 12.7 58.2511 12.8C57.7779 12.9 57.3047 12.9 56.8314 12.9C56.3582 12.8 55.9796 12.7 55.601 12.4C55.2224 12.1 54.8438 11.6 54.6545 11.1C54.3705 10.6 54.2759 10 54.1812 9.5C54.1812 9.4 54.1812 9.3 54.0866 9.2C53.8973 9.3 53.8973 9.5 53.8026 9.6C53.424 10.6 53.0455 11.6 52.8562 12.6C52.6669 13.8 52.5722 14.9 52.6669 16.1C52.7615 17.5 53.0455 18.8 53.4241 20.1C53.708 21.3 54.1812 22.6 54.6545 23.7C54.6545 23.8 54.7491 23.9 54.7491 24C54.7491 24.1 54.5598 24.1 54.4652 24.2C53.8026 24.5 53.1401 24.7 52.4776 24.8C51.4364 25.1 50.3006 25.3 49.2595 25.4C48.9756 25.4 48.597 25.5 48.313 25.5C48.2184 25.5 48.2184 25.5 48.0291 25.5C48.1237 25.6 48.1237 25.6 48.2184 25.6C49.2595 26 50.3006 26.3 51.4364 26.4C52.5722 26.5 53.708 26.4 54.8438 25.9C55.7903 25.5 56.8314 25 57.7779 24.5C58.6297 24 59.4816 23.6 60.3334 23.1C60.5227 23 60.712 22.9 60.9013 22.8C60.996 22.8 60.996 22.9 60.996 22.9C61.9425 23.8 62.6996 24.8 63.3622 25.9C64.0247 26.9 64.498 28 64.7819 29.2C64.9712 30 65.1605 30.8 65.3498 31.6C65.3498 31.8 65.3498 32 65.3498 32.2C65.1605 32.9 64.9712 33.6 64.6873 34.3C64.5926 34.6 64.4033 34.8 64.3087 35.1C64.214 35.3 64.0247 35.4 63.8354 35.5C63.6461 35.6 63.4568 35.7 63.2675 35.7C62.9836 35.8 62.7943 35.7 62.605 35.5C62.5103 35.4 62.4157 35.3 62.4157 35.2C61.8478 34.3 61.2799 33.4 60.712 32.4C60.712 32.3 60.6174 32.3 60.6174 32.2C60.996 31.9 61.3746 31.8 61.8478 31.7C62.3211 31.6 62.6996 31.7 63.0782 31.9C63.0782 31.8 63.0782 31.7 63.0782 31.7C62.8889 30.9 62.6996 30.1 62.4157 29.3C62.0371 28.3 61.4692 27.5 60.9013 26.7C60.8067 26.6 60.6174 26.4 60.5227 26.3C60.3334 26.5 60.1441 26.5 60.0495 26.5C59.9548 26.6 59.7655 26.6 59.6709 26.7C58.2511 27.5 56.8314 28.3 55.4117 29.1C54.3705 29.7 53.2348 30.3 52.099 30.8C50.7739 31.4 49.3541 31.9 47.9344 32.1C46.7986 32.3 45.6628 32.4 44.5271 32.2C43.0127 32 41.5929 31.6 40.2679 30.9C38.8481 30.2 37.523 29.4 36.0087 28.9C34.9675 28.5 34.021 28.2 32.8852 28C31.1816 27.7 29.5725 27.9 27.9635 28.6C26.4491 29.3 25.124 30.2 23.8936 31.3C23.1364 31.9 22.4739 32.6 21.906 33.3C21.7167 33.5 21.622 33.7 21.4327 33.9C21.4327 34 21.3381 34 21.2434 34C21.2434 33.9 21.2434 33.9 21.3381 33.8C21.8113 32.2 22.4739 30.6 23.4203 29.2C23.8936 28.4 24.3668 27.7 25.0294 27C25.6919 26.3 26.3545 25.7 27.2063 25.3C28.626 24.6 30.0458 23.9 31.5602 23.5C32.8852 23.1 34.2103 22.9 35.5354 23C36.3872 23 37.2391 23.1 37.9963 23.3C38.6588 23.4 39.3214 23.5 39.9839 23.6C41.1197 23.7 42.2555 23.5 43.202 22.8C44.0538 22.3 44.7164 21.6 45.3789 20.9C46.3254 19.8 47.1772 18.6 47.8398 17.2C48.597 15.9 49.1649 14.5 49.6381 13C49.6381 13.2 49.7327 13.1 49.7327 12.9ZM60.996 7.2C60.996 7 60.9013 6.9 60.712 6.8C60.5227 6.6 60.2388 6.5 60.0495 6.3C59.5762 5.9 59.0083 5.8 58.3458 5.8C58.2511 5.8 58.2512 5.8 58.1565 5.8C58.1565 5.9 58.1565 5.9 58.1565 5.9C58.3458 6.3 58.6297 6.6 58.9137 6.9C59.0083 7 59.1976 7 59.2923 6.9C59.4816 6.8 59.6709 6.8 59.8602 6.8C60.0495 6.8 60.1441 6.9 60.3334 6.9C60.6174 7.1 60.8067 7.1 60.996 7.2Z" fill="#BD9A5F"/>
<path d="M12.4411 34C12.5357 33.9 12.6304 33.9 12.6304 33.8C13.6715 33.4 14.7126 32.9 15.7538 32.3C16.227 32 16.7003 31.7 17.1735 31.3C17.5521 31 17.9307 30.6 18.2147 30.2C18.6879 29.4 19.2558 28.6 19.729 27.9C20.4862 26.7 21.2434 25.5 22.1899 24.4C22.4739 24 22.8525 23.6 23.1364 23.2C24.0829 22.1 25.3133 21.4 26.7331 21C27.7742 20.7 28.8153 20.6 29.9511 20.7C31.1816 20.8 32.3173 21.1 33.5478 21.5C33.6424 21.5 33.7371 21.6 33.9264 21.7C33.8317 21.8 33.7371 21.7 33.7371 21.7C31.3709 21.6 29.1939 22.2 27.2063 23.4C26.5438 23.8 25.9759 24.3 25.408 24.9C24.6508 25.7 23.8936 26.6 23.231 27.5C22.6632 28.2 22.1899 28.9 21.622 29.6C21.1488 30.2 20.6755 30.7 20.1076 31.1C19.729 31.4 19.3504 31.7 18.8772 31.9C17.3628 32.7 15.7538 33.3 14.0501 33.6C13.6715 33.7 13.2929 33.7 12.9143 33.8C12.725 34 12.5357 34 12.4411 34Z" fill="#BD9A5F"/>
<path d="M0.0420662 35.3C-0.0525827 35.2 0.0420662 35.2 0.0420662 35.1C0.704609 33.8 1.6511 32.7 2.78689 31.8C3.63873 31.2 4.58521 30.8 5.62635 30.7C6.47819 30.5 7.42468 30.5 8.27652 30.4C9.31766 30.4 10.3588 30.4 11.3999 30.3C11.7785 30.3 12.1571 30.2 12.4411 30.2C12.8197 30.1 13.1983 30 13.5769 29.9C14.7126 29.4 15.7538 28.9 16.7949 28.3C17.1735 28.1 17.5521 27.9 18.0254 27.6C18.12 27.6 18.2147 27.5 18.3093 27.4C18.3093 27.5 18.3093 27.5 18.3093 27.5C17.2682 28.9 16.1324 30.2 14.7126 31.3C14.5234 31.4 14.3341 31.6 14.1448 31.7C13.1983 32.4 12.1571 32.7 11.0213 32.7C10.2642 32.7 9.50696 32.7 8.74977 32.6C7.80328 32.5 6.85679 32.4 5.9103 32.4C5.34241 32.4 4.86916 32.4 4.30127 32.5C3.92267 32.6 3.63873 32.7 3.35478 32.8C2.21899 33.3 1.17785 34.1 0.231364 34.9C0.231364 35.2 0.136715 35.2 0.0420662 35.3Z" fill="#BD9A5F"/>
<path d="M82.1136 27V9.54545H92.6477V11.4205H84.2273V17.3182H92.1023V19.1932H84.2273V25.125H92.7841V27H82.1136ZM106.003 13.9091C105.901 13.0455 105.486 12.375 104.759 11.8977C104.031 11.4205 103.139 11.1818 102.082 11.1818C101.31 11.1818 100.634 11.3068 100.054 11.5568C99.4801 11.8068 99.0313 12.1506 98.7074 12.5881C98.3892 13.0256 98.2301 13.5227 98.2301 14.0795C98.2301 14.5455 98.3409 14.946 98.5625 15.2812C98.7898 15.6108 99.0795 15.8864 99.4318 16.108C99.7841 16.3239 100.153 16.5028 100.54 16.6449C100.926 16.7812 101.281 16.892 101.605 16.9773L103.378 17.4545C103.832 17.5739 104.338 17.7386 104.895 17.9489C105.457 18.1591 105.994 18.446 106.506 18.8097C107.023 19.1676 107.449 19.6278 107.784 20.1903C108.119 20.7528 108.287 21.4432 108.287 22.2614C108.287 23.2045 108.04 24.0568 107.545 24.8182C107.057 25.5795 106.341 26.1847 105.398 26.6335C104.46 27.0824 103.321 27.3068 101.98 27.3068C100.73 27.3068 99.6477 27.1051 98.733 26.7017C97.8239 26.2983 97.108 25.7358 96.5852 25.0142C96.0682 24.2926 95.7756 23.4545 95.7074 22.5H97.8892C97.946 23.1591 98.1676 23.7045 98.554 24.1364C98.946 24.5625 99.4403 24.8807 100.037 25.0909C100.639 25.2955 101.287 25.3977 101.98 25.3977C102.787 25.3977 103.511 25.267 104.153 25.0057C104.795 24.7386 105.304 24.3693 105.679 23.8977C106.054 23.4205 106.241 22.8636 106.241 22.2273C106.241 21.6477 106.08 21.1761 105.756 20.8125C105.432 20.4489 105.006 20.1534 104.477 19.9261C103.949 19.6989 103.378 19.5 102.764 19.3295L100.616 18.7159C99.2528 18.3239 98.1733 17.7642 97.3778 17.0369C96.5824 16.3097 96.1847 15.358 96.1847 14.1818C96.1847 13.2045 96.4489 12.3523 96.9773 11.625C97.5114 10.892 98.2273 10.3239 99.125 9.92045C100.028 9.51136 101.037 9.30682 102.151 9.30682C103.276 9.30682 104.276 9.50852 105.151 9.91193C106.026 10.3097 106.719 10.8551 107.23 11.5483C107.747 12.2415 108.02 13.0284 108.048 13.9091H106.003ZM110.808 11.4205V9.54545H123.898V11.4205H118.41V27H116.296V11.4205H110.808ZM127.161 27V9.54545H137.695V11.4205H129.274V17.3182H137.149V19.1932H129.274V25.125H137.831V27H127.161ZM141.504 27V9.54545H143.618V18.2045H143.822L151.663 9.54545H154.425L147.095 17.4205L154.425 27H151.868L145.8 18.8864L143.618 21.3409V27H141.504ZM157.161 27V9.54545H159.274V17.3182H168.581V9.54545H170.695V27H168.581V19.1932H159.274V27H157.161ZM180.312 27H174.926V9.54545H180.551C182.244 9.54545 183.693 9.89489 184.898 10.5938C186.102 11.2869 187.026 12.2841 187.668 13.5852C188.31 14.8807 188.631 16.4318 188.631 18.2386C188.631 20.0568 188.307 21.6222 187.659 22.9347C187.011 24.2415 186.068 25.2472 184.83 25.9517C183.591 26.6506 182.085 27 180.312 27ZM177.04 25.125H180.176C181.619 25.125 182.815 24.8466 183.764 24.2898C184.713 23.733 185.42 22.9403 185.886 21.9119C186.352 20.8835 186.585 19.6591 186.585 18.2386C186.585 16.8295 186.355 15.6165 185.895 14.5994C185.435 13.5767 184.747 12.7926 183.832 12.2472C182.918 11.696 181.778 11.4205 180.415 11.4205H177.04V25.125ZM192.072 27H189.856L196.265 9.54545H198.447L204.856 27H202.64L197.424 12.3068H197.288L192.072 27ZM192.89 20.1818H201.822V22.0568H192.89V20.1818ZM207.575 9.54545H210.097L216.029 24.0341H216.234L222.165 9.54545H224.688V27H222.711V13.7386H222.54L217.086 27H215.177L209.722 13.7386H209.552V27H207.575V9.54545Z" fill="#BD9A5F"/>
</svg>
