<?xml version="1.0" encoding="utf-8"?>
<!-- Generator: Adobe Illustrator 24.3.0, SVG Export Plug-In . SVG Version: 6.00 Build 0)  -->
<svg version="1.1" id="Layer_1" xmlns="http://www.w3.org/2000/svg" xmlns:xlink="http://www.w3.org/1999/xlink" x="0px" y="0px"
	 viewBox="0 0 210 55" style="enable-background:new 0 0 210 55;" xml:space="preserve">
<style type="text/css">
	.st0{fill:#BD9A5F;}
</style>
<g>
	<g>
		<g>
			<path class="st0" d="M55,22.4c0,0-0.1,0-0.1,0c-0.1,0.1-0.1,0.2-0.2,0.3c-1.1,1.7-2.3,3.3-3.7,4.9c-0.7,0.8-1.4,1.5-2.2,2.2
				c-0.4,0.3-0.8,0.6-1.3,0.9c-0.7,0.5-1.5,0.7-2.3,0.8c-1.2,0.1-2.5,0-3.7-0.3c-1.3-0.3-2.5-0.7-3.7-1.1c-1.1-0.4-2.2-0.8-3.4-1.1
				c-0.7-0.2-1.3-0.3-2-0.3c-0.8,0-1.5,0.1-2.2,0.5c-2,1-3.7,2.3-5.3,3.9c-0.1,0.1-0.1,0.1-0.2,0.2c0,0,0,0-0.1,0c0-0.1,0-0.1,0-0.1
				c1.1-2.3,2.7-4.2,5-5.3c0.8-0.4,1.6-0.6,2.4-0.9c1.1-0.3,2.3-0.6,3.5-0.8c1.3-0.2,2.6-0.3,3.9-0.2c1.3,0.1,2.5,0.3,3.8,0.5
				c0.7,0.1,1.5,0.3,2.2,0.3c0.5,0,1.1,0,1.6-0.2c0.7-0.2,1.4-0.4,2-0.7c0.4-0.2,0.8-0.4,1.1-0.7c0.1-0.1,0.2-0.2,0.3-0.3
				c-0.3-0.3-0.6-0.4-1-0.5c-0.6-0.1-1.1,0-1.6,0.2c-0.6,0.2-1.2,0.5-1.7,0.7c-0.1,0-0.2,0.1-0.4,0.1c0-0.1,0-0.1,0-0.1
				c0.4-0.7,0.8-1.3,1.3-1.9c0.3-0.3,0.6-0.6,1-0.8c0.3-0.2,0.7-0.4,1-0.6c0.4-0.3,0.9-0.6,1.3-0.9c0-0.1-0.1-0.1-0.2-0.1
				c-1.4-0.1-2.8,0.1-4.1,0.7c-0.7,0.3-1.3,0.6-2,1c-0.1,0.1-0.2,0.1-0.4,0.2c0-0.1,0-0.1,0-0.1c0.4-0.7,0.8-1.4,1.2-2.1
				c1.3-2,3.1-3.4,5.4-4.1c0.9-0.3,1.7-0.5,2.6-0.7c0.1,0,0.2,0,0.4-0.1c-0.8-0.2-1.6-0.4-2.4-0.4c-0.8,0-1.6,0.2-2.4,0.4
				c0-0.1,0.1-0.1,0.1-0.1c1.2-1,2.5-1.9,3.9-2.7c1.3-0.7,2.7-1.1,4.1-1.3c1.1-0.2,2.2-0.3,3.4-0.4c0.4,0,0.7,0,1.1-0.1
				c0.3,0,0.6-0.1,0.9-0.3c0.7-0.3,1.4-0.6,2.1-0.9c0.4-0.2,0.9-0.3,1.3-0.4c0.2,0,0.3,0,0.6-0.1c0,0.1,0,0.2-0.1,0.2
				c-0.3,0.4-0.6,0.7-1,1c-0.2,0.2-0.4,0.3-0.6,0.5c-0.1,0.1-0.2,0.2-0.3,0.3c-0.1,0.1-0.2,0.3-0.1,0.5c0.1,0.1,0.2,0.1,0.4,0.2
				c0.4,0.2,0.8,0.4,1.2,0.6c0.6,0.3,1.2,0.8,1.6,1.4c0.7,1.1,0.9,1.2,1.7,1.8c1.7,1.5,3.4,3.1,5.1,4.6c0.2,0.2,0.3,0.3,0.5,0.5
				c0,0.1,0,0.1,0,0.2c-0.3,0.9-0.7,1.7-1.3,2.5c-0.2,0.3-0.4,0.3-0.7,0.2c-0.2-0.1-0.5-0.2-0.6-0.4c-0.9-0.9-1.9-1.5-3-2
				c-0.3-0.1-0.5-0.2-0.8-0.3c-0.3-0.1-0.6-0.1-0.9,0.1c-1,0.4-2,0.8-3,0.9c-0.5,0.1-1,0.1-1.5,0.1c-0.5-0.1-0.9-0.2-1.3-0.5
				c-0.4-0.3-0.8-0.8-1-1.3c-0.3-0.5-0.4-1.1-0.5-1.6c0-0.1,0-0.2-0.1-0.3c-0.2,0.1-0.2,0.3-0.3,0.4c-0.4,1-0.8,2-1,3
				c-0.2,1.2-0.3,2.3-0.2,3.5c0.1,1.4,0.4,2.7,0.8,4c0.3,1.2,0.8,2.5,1.3,3.6c0,0.1,0.1,0.2,0.1,0.3c0,0,0,0,0,0
				c0,0.1-0.2,0.1-0.3,0.2c-0.7,0.3-1.4,0.5-2.1,0.6c-1.1,0.3-2.3,0.5-3.4,0.6c-0.3,0-0.7,0.1-1,0.1c-0.1,0-0.1,0-0.3,0
				c0.1,0.1,0.1,0.1,0.2,0.1c1.1,0.4,2.2,0.7,3.4,0.8c1.2,0.1,2.4,0,3.6-0.5c1-0.4,2.1-0.9,3.1-1.4c0.9-0.5,1.8-0.9,2.7-1.4
				c0.2-0.1,0.4-0.2,0.6-0.3c0.1,0,0.1,0.1,0.1,0.1c1,0.9,1.8,1.9,2.5,3c0.7,1,1.2,2.1,1.5,3.3c0.2,0.8,0.4,1.6,0.6,2.4
				c0,0.2,0,0.4,0,0.6c-0.2,0.7-0.4,1.4-0.7,2.1c-0.1,0.3-0.3,0.5-0.4,0.8c-0.1,0.2-0.3,0.3-0.5,0.4c-0.2,0.1-0.4,0.2-0.6,0.2
				c-0.3,0.1-0.5,0-0.7-0.2c-0.1-0.1-0.2-0.2-0.2-0.3c-0.6-0.9-1.2-1.8-1.8-2.8c0-0.1-0.1-0.1-0.1-0.2c0.4-0.3,0.8-0.4,1.3-0.5
				c0.5-0.1,0.9,0,1.3,0.2c0-0.1,0-0.2,0-0.2c-0.2-0.8-0.4-1.6-0.7-2.4c-0.4-1-1-1.8-1.6-2.6c-0.1-0.1-0.3-0.3-0.4-0.4
				C66.2,36,66,36,65.9,36c-0.1,0.1-0.3,0.1-0.4,0.2c-1.5,0.8-3,1.6-4.5,2.4c-1.1,0.6-2.3,1.2-3.5,1.7c-1.4,0.6-2.9,1.1-4.4,1.3
				c-1.2,0.2-2.4,0.3-3.6,0.1c-1.6-0.2-3.1-0.6-4.5-1.3c-1.5-0.7-2.9-1.5-4.5-2c-1.1-0.4-2.1-0.7-3.3-0.9c-1.8-0.3-3.5-0.1-5.2,0.6
				c-1.6,0.7-3,1.6-4.3,2.7c-0.8,0.6-1.5,1.3-2.1,2c-0.2,0.2-0.3,0.4-0.5,0.6c0,0.1-0.1,0.1-0.2,0.1c0-0.1,0-0.1,0.1-0.2
				c0.5-1.6,1.2-3.2,2.2-4.6c0.5-0.8,1-1.5,1.7-2.2c0.7-0.7,1.4-1.3,2.3-1.7c1.5-0.7,3-1.4,4.6-1.8c1.4-0.4,2.8-0.6,4.2-0.5
				c0.9,0,1.8,0.1,2.6,0.3c0.7,0.1,1.4,0.2,2.1,0.3c1.2,0.1,2.4-0.1,3.4-0.8c0.9-0.5,1.6-1.2,2.3-1.9c1-1.1,1.9-2.3,2.6-3.7
				c0.8-1.3,1.4-2.7,1.9-4.2C54.9,22.7,55,22.6,55,22.4C55,22.4,55.1,22.4,55,22.4C55,22.4,55,22.4,55,22.4z M66.9,16.7
				c0-0.2-0.1-0.3-0.3-0.4c-0.2-0.2-0.5-0.3-0.7-0.5c-0.5-0.4-1.1-0.5-1.8-0.5c-0.1,0-0.1,0-0.2,0c0,0.1,0,0.1,0,0.1
				c0.2,0.4,0.5,0.7,0.8,1c0.1,0.1,0.3,0.1,0.4,0c0.2-0.1,0.4-0.1,0.6-0.1c0.2,0,0.3,0.1,0.5,0.1C66.5,16.6,66.7,16.6,66.9,16.7z"/>
		</g>
		<g>
			<path class="st0" d="M15.6,43.5c0.1-0.1,0.2-0.1,0.2-0.2c1.1-0.4,2.2-0.9,3.3-1.5c0.5-0.3,1-0.6,1.5-1c0.4-0.3,0.8-0.7,1.1-1.1
				c0.5-0.8,1.1-1.6,1.6-2.3c0.8-1.2,1.6-2.4,2.6-3.5c0.3-0.4,0.7-0.8,1-1.2c1-1.1,2.3-1.8,3.8-2.2c1.1-0.3,2.2-0.4,3.4-0.3
				c1.3,0.1,2.5,0.4,3.8,0.8c0.1,0,0.2,0.1,0.4,0.2c-0.1,0.1-0.2,0-0.2,0c-2.5-0.1-4.8,0.5-6.9,1.7c-0.7,0.4-1.3,0.9-1.9,1.5
				c-0.8,0.8-1.6,1.7-2.3,2.6c-0.6,0.7-1.1,1.4-1.7,2.1c-0.5,0.6-1,1.1-1.6,1.5c-0.4,0.3-0.8,0.6-1.3,0.8c-1.6,0.8-3.3,1.4-5.1,1.7
				c-0.4,0.1-0.8,0.1-1.2,0.2C15.9,43.5,15.7,43.5,15.6,43.5z"/>
		</g>
		<g>
			<path class="st0" d="M2.5,44.8c-0.1-0.1,0-0.1,0-0.2c0.7-1.3,1.7-2.4,2.9-3.3c0.9-0.6,1.9-1,3-1.1c0.9-0.2,1.9-0.2,2.8-0.3
				c1.1,0,2.2,0,3.3-0.1c0.4,0,0.8-0.1,1.1-0.1c0.4-0.1,0.8-0.2,1.2-0.3c1.2-0.5,2.3-1,3.4-1.6c0.4-0.2,0.8-0.4,1.3-0.7
				c0.1,0,0.2-0.1,0.3-0.2c0,0.1,0,0.1,0,0.1c-1.1,1.4-2.3,2.7-3.8,3.8c-0.2,0.1-0.4,0.3-0.6,0.4c-1,0.7-2.1,1-3.3,1
				c-0.8,0-1.6,0-2.4-0.1c-1-0.1-2-0.2-3-0.2c-0.6,0-1.1,0-1.7,0.1c-0.4,0.1-0.7,0.2-1,0.3c-1.2,0.5-2.3,1.3-3.3,2.1
				C2.7,44.7,2.6,44.7,2.5,44.8z"/>
		</g>
	</g>
	<g>
		<path class="st0" d="M82,32.3v-16h-6.2v-2.8h15.8v2.8h-6.2v16H82z"/>
		<path class="st0" d="M106.2,32.3l-1.9-4.4h-9.2l-1.9,4.4h-3.5l8.5-18.9h2.8l8.5,18.9H106.2z M96.3,25.2h6.9l-3.5-8L96.3,25.2z"/>
		<path class="st0" d="M128.6,13.4h2.7v18.9h-3.1V19.8l-5,9.4H121l-5-9.3l0,12.3H113V13.4h2.7l6.5,12.3L128.6,13.4z"/>
		<path class="st0" d="M136.2,32.3V13.4h3.5v16h9.6v2.8H136.2z"/>
		<path class="st0" d="M152.3,32.3V13.4h12.6v2.7h-9.3v5.2h8.7v2.7h-8.7v5.5h9.3v2.7H152.3z"/>
		<path class="st0" d="M169.6,32.3V13.4h12.6v2.7H173v5.2h8.7v2.7H173v5.5h9.3v2.7H169.6z"/>
		<path class="st0" d="M202.9,32.3h-4.2l-8.8-8.8v8.8h-3.5V13.4h3.5v8.4l8.4-8.4h4.1l-9.1,9.1L202.9,32.3z"/>
		<g>
			<g>
				<path class="st0" d="M205.2,18.1c-1.3,0-2.3-1-2.3-2.3c0-1.3,1-2.3,2.3-2.3c1.3,0,2.3,1,2.3,2.3C207.6,17,206.5,18.1,205.2,18.1
					z M205.2,13.8c-1.1,0-1.9,0.9-1.9,1.9c0,1.1,0.9,1.9,1.9,1.9c1.1,0,1.9-0.9,1.9-1.9C207.2,14.7,206.3,13.8,205.2,13.8z"/>
			</g>
			<g>
				<path class="st0" d="M206.3,16.9h-0.4l-0.4-0.7c0-0.1-0.1-0.1-0.1-0.1c-0.1,0-0.1,0-0.2,0h-0.3v0.9h-0.4v-2.2h1
					c0.3,0,0.4,0.1,0.6,0.2c0.1,0.1,0.2,0.3,0.2,0.5c0,0.2,0,0.3-0.1,0.4s-0.2,0.2-0.4,0.2c0.1,0,0.2,0.1,0.3,0.2L206.3,16.9z
					 M205.7,15.6c0.1-0.1,0.1-0.1,0.1-0.3c0-0.1,0-0.2-0.1-0.3c-0.1-0.1-0.2-0.1-0.3-0.1h-0.5v0.7h0.5
					C205.5,15.7,205.6,15.6,205.7,15.6z"/>
			</g>
		</g>
		<g>
			<path class="st0" d="M86.3,43h-1l-0.9-1.7c-0.1-0.2-0.2-0.3-0.3-0.3c-0.1-0.1-0.3-0.1-0.5-0.1h-0.7V43H82v-5.2h2.3
				c0.6,0,1,0.1,1.3,0.4c0.3,0.3,0.5,0.6,0.5,1.1c0,0.4-0.1,0.7-0.3,1c-0.2,0.3-0.5,0.4-0.9,0.5c0.3,0.1,0.5,0.3,0.7,0.6L86.3,43z
				 M84.9,40c0.2-0.1,0.3-0.3,0.3-0.6c0-0.3-0.1-0.5-0.3-0.6c-0.2-0.1-0.4-0.2-0.8-0.2h-1.2v1.6h1.2C84.5,40.2,84.7,40.1,84.9,40z"
				/>
			<path class="st0" d="M87.5,43v-5.2H91v0.8h-2.5V40h2.4v0.7h-2.4v1.5H91V43H87.5z"/>
			<path class="st0" d="M92.6,43v-5.2h0.9V43H92.6z"/>
			<path class="st0" d="M96.7,43v-4.4H95v-0.8h4.3v0.8h-1.7V43H96.7L96.7,43z"/>
			<path class="st0" d="M105.7,43l-0.5-0.6c-0.2,0.2-0.5,0.3-0.7,0.5s-0.5,0.2-0.8,0.2c-0.3,0-0.7-0.1-0.9-0.2
				c-0.3-0.1-0.5-0.3-0.6-0.5c-0.2-0.2-0.2-0.5-0.2-0.7c0-0.3,0.1-0.6,0.3-0.8s0.5-0.5,0.8-0.7c-0.2-0.2-0.3-0.4-0.4-0.6
				c-0.1-0.2-0.1-0.4-0.1-0.6c0-0.4,0.1-0.7,0.4-0.9s0.6-0.3,1-0.3c0.4,0,0.7,0.1,0.9,0.3c0.2,0.2,0.3,0.5,0.3,0.8
				c0,0.3-0.1,0.5-0.2,0.7c-0.2,0.2-0.4,0.4-0.8,0.6l1,1c0.2-0.4,0.3-0.9,0.3-1.4h0.8c0,0.8-0.2,1.4-0.6,1.9l1.1,1.2H105.7L105.7,43
				z M104.7,41.9l-1.3-1.3c-0.2,0.1-0.4,0.3-0.5,0.5c-0.1,0.2-0.2,0.3-0.2,0.5c0,0.2,0.1,0.4,0.2,0.5c0.2,0.1,0.4,0.2,0.7,0.2
				C104,42.3,104.4,42.2,104.7,41.9z M103.4,38.5c-0.1,0.1-0.2,0.2-0.2,0.4c0,0.1,0,0.2,0.1,0.3c0.1,0.1,0.2,0.3,0.3,0.4
				c0.3-0.1,0.4-0.3,0.5-0.4c0.1-0.1,0.2-0.3,0.2-0.4c0-0.2,0-0.3-0.1-0.4c-0.1-0.1-0.2-0.1-0.4-0.1
				C103.6,38.4,103.5,38.4,103.4,38.5z"/>
			<path class="st0" d="M114.3,40.2v2.5c-0.2,0.1-0.5,0.2-0.9,0.3c-0.3,0.1-0.7,0.1-1,0.1c-0.5,0-1-0.1-1.4-0.3
				c-0.4-0.2-0.7-0.5-0.9-0.9c-0.2-0.4-0.3-0.9-0.3-1.4c0-0.5,0.1-1,0.3-1.4c0.2-0.4,0.5-0.7,0.9-0.9c0.4-0.2,0.8-0.3,1.4-0.3
				c0.4,0,0.7,0.1,1,0.2c0.3,0.1,0.6,0.3,0.8,0.5l-0.3,0.7c-0.2-0.2-0.5-0.3-0.7-0.4c-0.2-0.1-0.5-0.1-0.8-0.1
				c-0.5,0-0.9,0.2-1.2,0.5c-0.3,0.3-0.4,0.8-0.4,1.4c0,1.3,0.6,1.9,1.7,1.9c0.3,0,0.7,0,1-0.1v-1.3h-1.1v-0.7L114.3,40.2
				L114.3,40.2z"/>
			<path class="st0" d="M116.1,43v-5.2h0.9v4.4h2.4V43H116.1L116.1,43z"/>
			<path class="st0" d="M121.5,42.7c-0.4-0.2-0.7-0.5-0.9-0.9c-0.2-0.4-0.3-0.9-0.3-1.4c0-0.5,0.1-1,0.3-1.4
				c0.2-0.4,0.5-0.7,0.9-0.9c0.4-0.2,0.8-0.3,1.3-0.3c0.5,0,0.9,0.1,1.3,0.3c0.4,0.2,0.7,0.5,0.9,0.9c0.2,0.4,0.3,0.9,0.3,1.4
				c0,0.5-0.1,1-0.3,1.4c-0.2,0.4-0.5,0.7-0.9,0.9c-0.4,0.2-0.8,0.3-1.3,0.3C122.3,43,121.9,42.9,121.5,42.7z M123.9,41.8
				c0.3-0.3,0.4-0.8,0.4-1.4c0-0.6-0.1-1.1-0.4-1.4c-0.3-0.3-0.6-0.5-1.1-0.5c-0.5,0-0.9,0.2-1.1,0.5c-0.3,0.3-0.4,0.8-0.4,1.4
				c0,0.6,0.1,1.1,0.4,1.4c0.3,0.3,0.6,0.5,1.1,0.5C123.3,42.3,123.7,42.1,123.9,41.8z"/>
			<path class="st0" d="M130.6,40.8c0.2,0.2,0.2,0.5,0.2,0.8c0,0.4-0.2,0.8-0.5,1c-0.3,0.3-0.8,0.4-1.3,0.4h-2.4v-5.2h2.3
				c0.5,0,1,0.1,1.3,0.4c0.3,0.2,0.5,0.6,0.5,1c0,0.3-0.1,0.5-0.2,0.7c-0.1,0.2-0.3,0.3-0.6,0.4C130.2,40.4,130.4,40.5,130.6,40.8z
				 M127.6,40h1.2c0.7,0,1-0.2,1-0.7c0-0.2-0.1-0.4-0.2-0.5c-0.2-0.1-0.4-0.2-0.7-0.2h-1.2V40z M129.7,42.1c0.2-0.1,0.2-0.3,0.2-0.6
				s-0.1-0.5-0.2-0.6c-0.2-0.1-0.4-0.2-0.7-0.2h-1.3v1.5h1.3C129.3,42.2,129.5,42.2,129.7,42.1z"/>
			<path class="st0" d="M136,43l-0.5-1.2H133l-0.5,1.2h-1l2.3-5.2h0.8L137,43H136z M133.3,41h1.9l-0.9-2.2L133.3,41z"/>
			<path class="st0" d="M137.9,43v-5.2h0.9v4.4h2.4V43H137.9L137.9,43z"/>
			<path class="st0" d="M145,43v-5.2h0.9V43H145z"/>
			<path class="st0" d="M151.3,37.8h0.9V43h-0.7l-2.8-3.6V43h-0.9v-5.2h0.7l2.8,3.6L151.3,37.8L151.3,37.8z"/>
			<path class="st0" d="M157.9,37.8h1l-2.3,5.2h-0.8l-2.3-5.2h1l1.7,4L157.9,37.8z"/>
			<path class="st0" d="M160.1,43v-5.2h3.5v0.8H161V40h2.4v0.7H161v1.5h2.5V43H160.1z"/>
			<path class="st0" d="M165.7,42.9c-0.3-0.1-0.6-0.3-0.9-0.5l0.3-0.7c0.2,0.2,0.5,0.3,0.8,0.4c0.3,0.1,0.6,0.1,0.9,0.1
				c0.4,0,0.6-0.1,0.8-0.2c0.2-0.1,0.3-0.3,0.3-0.5c0-0.2-0.1-0.3-0.3-0.4c-0.2-0.1-0.5-0.2-0.9-0.3c-0.4-0.1-0.8-0.2-1.1-0.3
				s-0.5-0.3-0.6-0.5c-0.1-0.2-0.2-0.4-0.2-0.7c0-0.3,0.1-0.6,0.3-0.8c0.2-0.2,0.4-0.4,0.7-0.6c0.3-0.1,0.7-0.2,1.1-0.2
				c0.4,0,0.7,0.1,1,0.2c0.3,0.1,0.6,0.3,0.8,0.5l-0.3,0.7c-0.5-0.4-1-0.6-1.5-0.6c-0.3,0-0.6,0.1-0.8,0.2c-0.2,0.1-0.3,0.3-0.3,0.6
				c0,0.2,0.1,0.4,0.3,0.5c0.2,0.1,0.5,0.2,0.9,0.3c0.4,0.1,0.8,0.2,1.1,0.3c0.3,0.1,0.5,0.3,0.6,0.5c0.1,0.2,0.2,0.4,0.2,0.7
				c0,0.3-0.1,0.6-0.2,0.8c-0.2,0.2-0.4,0.4-0.7,0.5c-0.3,0.1-0.7,0.2-1.1,0.2C166.4,43,166.1,43,165.7,42.9z"/>
			<path class="st0" d="M171.6,43v-4.4h-1.7v-0.8h4.3v0.8h-1.7V43H171.6L171.6,43z"/>
			<path class="st0" d="M180,37.8h0.7V43h-0.8v-3.4l-1.4,2.6h-0.6l-1.4-2.6l0,3.4h-0.8v-5.2h0.8l1.8,3.4L180,37.8z"/>
			<path class="st0" d="M182.6,43v-5.2h3.5v0.8h-2.5V40h2.4v0.7h-2.4v1.5h2.5V43H182.6z"/>
			<path class="st0" d="M191.2,37.8h0.9V43h-0.7l-2.8-3.6V43h-0.9v-5.2h0.7l2.8,3.6L191.2,37.8L191.2,37.8z"/>
			<path class="st0" d="M195.1,43v-4.4h-1.7v-0.8h4.3v0.8h-1.7V43H195.1L195.1,43z"/>
			<path class="st0" d="M199.7,42.9c-0.4-0.1-0.6-0.3-0.9-0.5l0.3-0.7c0.3,0.2,0.5,0.3,0.8,0.4c0.3,0.1,0.6,0.1,0.9,0.1
				c0.4,0,0.6-0.1,0.8-0.2c0.2-0.1,0.3-0.3,0.3-0.5c0-0.2-0.1-0.3-0.3-0.5c-0.2-0.1-0.5-0.2-0.9-0.3c-0.4-0.1-0.8-0.2-1.1-0.3
				c-0.3-0.1-0.5-0.3-0.6-0.5c-0.1-0.2-0.2-0.4-0.2-0.7c0-0.3,0.1-0.6,0.3-0.8c0.2-0.2,0.4-0.4,0.7-0.6c0.3-0.1,0.7-0.2,1.1-0.2
				c0.4,0,0.7,0.1,1,0.2c0.3,0.1,0.6,0.3,0.8,0.5l-0.3,0.7c-0.5-0.4-1-0.6-1.5-0.6c-0.3,0-0.6,0.1-0.8,0.2c-0.2,0.1-0.3,0.3-0.3,0.6
				c0,0.2,0.1,0.4,0.3,0.5c0.2,0.1,0.5,0.2,0.9,0.3c0.4,0.1,0.8,0.2,1.1,0.3c0.3,0.1,0.5,0.3,0.6,0.5c0.1,0.2,0.2,0.4,0.2,0.7
				c0,0.3-0.1,0.6-0.2,0.8c-0.2,0.2-0.4,0.4-0.7,0.5c-0.3,0.1-0.7,0.2-1.1,0.2C200.4,43.1,200,43,199.7,42.9z"/>
		</g>
	</g>
</g>
</svg>
